<svg xmlns="http://www.w3.org/2000/svg" viewBox="0 0 960 440" width="960" height="440" role="img" aria-labelledby="ttl dsc">
  <title id="ttl">出現箇所がグループになるまで</title>
  <desc id="dsc">類似関係は推移的ではありません。単純な連結成分で束ねると、A–B–C–D がペアの連鎖でつながり、まったく似ていない A と D が同じグループに入ってしまいます。codehelion は候補を canonical member に対して測り、閾値を越えたものだけを入れるので、連鎖が無関係なユニットを引き込むことはありません。閾値から漏れたものも捨てずに報告します。sibling、near miss、そしてどの完全なグループにも入らない検証済みペアです。</desc>

  <style>
    .bg    { fill:#f6f8fa }
    .box   { fill:#ffffff; stroke:#d8dee4 }
    .box2  { fill:#f6f8fa; stroke:#d8dee4 }
    .ext   { fill:none; stroke:#afb8c1; stroke-dasharray:5 4 }
    .node  { fill:#ffffff; stroke:#0a5ca8; stroke-width:1.4 }
    .nodef { fill:#0a5ca8 }
    .nodet { font-size:11px }
    .nodetf{ font-size:11px; fill:#ffffff }
    .ln    { fill:none; stroke:#0a5ca8; stroke-width:1.4 }
    .lnb   { fill:none; stroke:#8c959f; stroke-width:1.2; stroke-dasharray:5 4 }
    .rule  { stroke:#e1e6eb }
    text   { font-family:Inter,"Helvetica Neue","Hiragino Sans","Noto Sans JP",Arial,sans-serif; fill:#1f2328 }
    .h     { font-size:13px }
    .s     { font-size:10.5px; fill:#59636e }
    .xs    { font-size:9.5px; fill:#59636e }
    .lbl   { font-size:10.5px; fill:#59636e; letter-spacing:.08em }
    .mono  { font-family:ui-monospace,SFMono-Regular,Menlo,Consolas,monospace }
    @media (prefers-color-scheme: dark) {
      .bg{fill:#0d1117} .box{fill:#161b22;stroke:#30363d} .box2{fill:#11161c;stroke:#30363d}
      .ext{stroke:#484f58} .rule{stroke:#21262d}
      .node{fill:#161b22;stroke:#79b8ff} .nodef{fill:#79b8ff} .nodetf{fill:#0d1117}
      .ln{stroke:#79b8ff} .lnb{stroke:#6e7781}
      text{fill:#e6edf3} .s{fill:#8b949e} .xs{fill:#8b949e} .lbl{fill:#8b949e}
    }
  </style>

  <rect class="bg" x="0" y="0" width="960" height="440" rx="12"/>

  <rect class="box" x="24" y="72" width="440" height="200" rx="8"/>
  <text class="lbl" x="40" y="98">ペアの一致をつないだ連鎖</text>

  <path class="ln" d="M99,150 L169,150"/>
  <path class="ln" d="M199,150 L269,150"/>
  <path class="ln" d="M299,150 L369,150"/>
  <text class="xs mono" x="134" y="142" text-anchor="middle">0.85</text>
  <text class="xs mono" x="234" y="142" text-anchor="middle">0.80</text>
  <text class="xs mono" x="334" y="142" text-anchor="middle">0.78</text>

  <circle class="node" cx="84"  cy="150" r="15"/><text class="nodet" x="84"  y="154" text-anchor="middle">A</text>
  <circle class="node" cx="184" cy="150" r="15"/><text class="nodet" x="184" y="154" text-anchor="middle">B</text>
  <circle class="node" cx="284" cy="150" r="15"/><text class="nodet" x="284" y="154" text-anchor="middle">C</text>
  <circle class="node" cx="384" cy="150" r="15"/><text class="nodet" x="384" y="154" text-anchor="middle">D</text>

  <path class="lnb" d="M84,167 Q234,227 384,167"/>
  <text class="xs mono" x="234" y="214" text-anchor="middle">0.31</text>
  <text class="s" x="234" y="250" text-anchor="middle">A と D が測られないまま同じグループに入る</text>

  <rect class="box" x="496" y="72" width="440" height="200" rx="8"/>
  <text class="lbl" x="512" y="98">canonical member を基準に測る</text>

  <circle class="ext" cx="610" cy="170" r="74"/>
  <path class="ln" d="M626,158 L654,140"/>
  <path class="ln" d="M626,182 L662,196"/>
  <path class="lnb" d="M628,170 L774,170"/>
  <text class="xs mono" x="648" y="128" text-anchor="end">0.85</text>
  <text class="xs mono" x="650" y="218" text-anchor="end">0.80</text>
  <text class="xs mono" x="706" y="162" text-anchor="middle">0.31</text>

  <circle class="nodef" cx="610" cy="170" r="17"/><text class="nodetf" x="610" y="174" text-anchor="middle">◆</text>
  <circle class="node"  cx="668" cy="132" r="15"/><text class="nodet"  x="668" y="136" text-anchor="middle">B</text>
  <circle class="node"  cx="676" cy="204" r="15"/><text class="nodet"  x="676" y="208" text-anchor="middle">C</text>
  <circle class="node"  cx="790" cy="170" r="15"/><text class="nodet"  x="790" y="174" text-anchor="middle">D</text>

  <text class="xs" x="610" y="262" text-anchor="middle">閾値</text>
  <text class="s"  x="856" y="200" text-anchor="middle">対象外</text>

  <text class="s" x="24"  y="296">単純な連結成分は、つなげられる連鎖をすべて残します。</text>
  <text class="s" x="496" y="296">各メンバーは ◆ に対して閾値を越えており、連鎖では入りません。</text>

  <rect class="box2" x="24" y="320" width="290" height="76" rx="8"/>
  <text class="h" x="40" y="344">sibling</text>
  <text class="s" x="40" y="364">◆ に近いと測られ、そのグループが</text>
  <text class="s" x="40" y="382">すでに占めるファイルにある未グループ</text>

  <rect class="box2" x="336" y="320" width="290" height="76" rx="8"/>
  <text class="h" x="352" y="344">near miss</text>
  <text class="s" x="352" y="364">閾値のすぐ下にある候補。診断用の</text>
  <text class="s" x="352" y="382">帯として保持します</text>

  <rect class="box2" x="648" y="320" width="288" height="76" rx="8"/>
  <text class="h" x="664" y="344">split pair</text>
  <text class="s" x="664" y="364">どの完全なグループにも入らない</text>
  <text class="s" x="664" y="382">検証済みペア。グループの後ろに表示</text>

  <text class="s" x="24" y="424">類似関係は推移的ではないため、グループ化に単純な連結成分だけを使うことはありません。</text>
</svg>
